G04 Layer_Color=8388736*
%FSLAX25Y25*%
%MOIN*%
%TF.FileFunction,Soldermask,Top*%
%TF.Part,Single*%
G01*
G75*
%TA.AperFunction,SMDPad*%
%ADD19R,0.06621X0.03550*%
%TA.AperFunction,SMDPad*%
%ADD20R,0.02959X0.02959*%
%TA.AperFunction,SMDPad*%
%ADD21R,0.02959X0.02959*%
%TA.AperFunction,SMDPad*%
%ADD22R,0.02959X0.02762*%
D19*
X366142Y347048D02*
D03*
X342520D02*
D03*
X366142Y361614D02*
D03*
X342520D02*
D03*
D20*
X368799Y356004D02*
D03*
Y352658D02*
D03*
X373721Y356004D02*
D03*
Y352658D02*
D03*
X339863D02*
D03*
Y356004D02*
D03*
X334941Y352658D02*
D03*
Y356004D02*
D03*
D21*
X352658Y334941D02*
D03*
X356004D02*
D03*
X352658Y339863D02*
D03*
X356004D02*
D03*
Y373721D02*
D03*
X352658D02*
D03*
X356004Y368799D02*
D03*
X352658D02*
D03*
D22*
X365500Y342173D02*
D03*
Y338827D02*
D03*
X365500Y366327D02*
D03*
Y369673D02*
D03*
X347500Y340673D02*
D03*
Y337327D02*
D03*
X361000Y340673D02*
D03*
Y337327D02*
D03*
X343000Y366327D02*
D03*
Y369673D02*
D03*
X343000Y342173D02*
D03*
Y338827D02*
D03*
X361000Y367827D02*
D03*
Y371173D02*
D03*
X347500Y367827D02*
D03*
Y371173D02*
D03*
%TF.MD5,760DC3B6179D1E0688AF480AD20A2819*%
M02*
