G04 Layer_Color=65535*
%FSLAX25Y25*%
%MOIN*%
%TF.FileFunction,Legend,Top*%
%TF.Part,Single*%
G01*
G75*
%ADD14C,0.01000*%
%ADD17C,0.00598*%
%ADD18C,0.00787*%
G36*
X337148Y349558D02*
X337188D01*
X337227Y349553D01*
X337276Y349548D01*
X337330Y349543D01*
X337448Y349518D01*
X337571Y349489D01*
X337704Y349445D01*
X337837Y349386D01*
X337842D01*
X337852Y349376D01*
X337871Y349366D01*
X337896Y349351D01*
X337926Y349336D01*
X337955Y349312D01*
X338034Y349258D01*
X338122Y349189D01*
X338211Y349105D01*
X338295Y349007D01*
X338368Y348899D01*
Y348894D01*
X338378Y348884D01*
X338388Y348869D01*
X338398Y348844D01*
X338413Y348820D01*
X338427Y348785D01*
X338462Y348702D01*
X338496Y348608D01*
X338526Y348495D01*
X338545Y348377D01*
X338555Y348249D01*
Y348244D01*
Y348234D01*
Y348219D01*
X338550Y348195D01*
Y348165D01*
X338545Y348131D01*
X338536Y348052D01*
X338511Y347959D01*
X338481Y347860D01*
X338437Y347757D01*
X338378Y347654D01*
Y347649D01*
X338368Y347644D01*
X338358Y347629D01*
X338344Y347609D01*
X338304Y347560D01*
X338245Y347501D01*
X338172Y347432D01*
X338083Y347363D01*
X337980Y347295D01*
X337857Y347231D01*
X337862D01*
X337876Y347226D01*
X337901Y347221D01*
X337930Y347211D01*
X337970Y347196D01*
X338009Y347181D01*
X338112Y347137D01*
X338221Y347083D01*
X338339Y347004D01*
X338452Y346916D01*
X338501Y346862D01*
X338550Y346803D01*
X338555Y346798D01*
X338560Y346788D01*
X338575Y346768D01*
X338590Y346743D01*
X338609Y346714D01*
X338629Y346675D01*
X338654Y346630D01*
X338678Y346581D01*
X338698Y346522D01*
X338723Y346463D01*
X338742Y346394D01*
X338762Y346325D01*
X338791Y346168D01*
X338796Y346079D01*
X338801Y345991D01*
Y345986D01*
Y345961D01*
X338796Y345927D01*
Y345883D01*
X338787Y345824D01*
X338777Y345760D01*
X338762Y345686D01*
X338742Y345602D01*
X338718Y345518D01*
X338683Y345430D01*
X338644Y345336D01*
X338600Y345243D01*
X338541Y345149D01*
X338477Y345051D01*
X338403Y344963D01*
X338319Y344874D01*
X338314Y344869D01*
X338299Y344854D01*
X338270Y344830D01*
X338231Y344805D01*
X338186Y344766D01*
X338127Y344731D01*
X338063Y344687D01*
X337985Y344648D01*
X337901Y344603D01*
X337807Y344559D01*
X337709Y344525D01*
X337601Y344490D01*
X337488Y344461D01*
X337365Y344436D01*
X337237Y344421D01*
X337099Y344416D01*
X337070D01*
X337035Y344421D01*
X336991D01*
X336932Y344426D01*
X336868Y344436D01*
X336794Y344451D01*
X336710Y344466D01*
X336627Y344485D01*
X336538Y344515D01*
X336445Y344544D01*
X336356Y344584D01*
X336263Y344628D01*
X336169Y344682D01*
X336081Y344741D01*
X335997Y344810D01*
X335992Y344815D01*
X335977Y344830D01*
X335958Y344849D01*
X335928Y344884D01*
X335894Y344923D01*
X335854Y344967D01*
X335815Y345022D01*
X335771Y345086D01*
X335726Y345154D01*
X335682Y345233D01*
X335643Y345317D01*
X335603Y345410D01*
X335569Y345509D01*
X335539Y345612D01*
X335515Y345720D01*
X335500Y345838D01*
X336120Y345922D01*
Y345917D01*
X336125Y345897D01*
X336130Y345873D01*
X336140Y345833D01*
X336149Y345794D01*
X336164Y345740D01*
X336184Y345686D01*
X336204Y345627D01*
X336253Y345504D01*
X336317Y345376D01*
X336390Y345258D01*
X336435Y345209D01*
X336479Y345159D01*
X336484D01*
X336489Y345149D01*
X336504Y345140D01*
X336523Y345125D01*
X336548Y345105D01*
X336578Y345086D01*
X336651Y345046D01*
X336745Y345002D01*
X336853Y344963D01*
X336971Y344938D01*
X337035Y344933D01*
X337104Y344928D01*
X337148D01*
X337178Y344933D01*
X337217Y344938D01*
X337256Y344943D01*
X337306Y344953D01*
X337360Y344967D01*
X337478Y345002D01*
X337537Y345026D01*
X337601Y345056D01*
X337665Y345090D01*
X337724Y345130D01*
X337783Y345174D01*
X337842Y345228D01*
X337847Y345233D01*
X337857Y345243D01*
X337871Y345258D01*
X337891Y345282D01*
X337911Y345312D01*
X337935Y345346D01*
X337965Y345386D01*
X337994Y345435D01*
X338019Y345484D01*
X338049Y345543D01*
X338098Y345671D01*
X338112Y345740D01*
X338127Y345814D01*
X338137Y345892D01*
X338142Y345976D01*
Y345981D01*
Y345996D01*
Y346015D01*
X338137Y346050D01*
X338132Y346084D01*
X338127Y346129D01*
X338117Y346173D01*
X338108Y346227D01*
X338073Y346335D01*
X338053Y346394D01*
X338024Y346453D01*
X337989Y346512D01*
X337955Y346571D01*
X337911Y346625D01*
X337862Y346680D01*
X337857Y346685D01*
X337847Y346689D01*
X337832Y346704D01*
X337812Y346724D01*
X337783Y346743D01*
X337748Y346768D01*
X337714Y346793D01*
X337670Y346817D01*
X337620Y346842D01*
X337566Y346866D01*
X337443Y346911D01*
X337306Y346945D01*
X337232Y346950D01*
X337153Y346955D01*
X337124D01*
X337084Y346950D01*
X337035Y346945D01*
X336971Y346940D01*
X336897Y346931D01*
X336814Y346911D01*
X336720Y346891D01*
X336789Y347432D01*
X336799D01*
X336824Y347427D01*
X336858Y347423D01*
X336927D01*
X336956Y347427D01*
X336991D01*
X337030Y347432D01*
X337074Y347442D01*
X337124Y347447D01*
X337237Y347472D01*
X337355Y347511D01*
X337478Y347560D01*
X337601Y347629D01*
X337606Y347634D01*
X337616Y347639D01*
X337630Y347649D01*
X337650Y347669D01*
X337675Y347688D01*
X337704Y347718D01*
X337729Y347747D01*
X337763Y347787D01*
X337793Y347826D01*
X337817Y347875D01*
X337847Y347929D01*
X337871Y347983D01*
X337891Y348047D01*
X337906Y348116D01*
X337916Y348185D01*
X337921Y348264D01*
Y348269D01*
Y348279D01*
Y348298D01*
X337916Y348323D01*
Y348352D01*
X337911Y348387D01*
X337891Y348465D01*
X337866Y348554D01*
X337822Y348648D01*
X337768Y348741D01*
X337729Y348785D01*
X337689Y348830D01*
X337684Y348834D01*
X337680Y348839D01*
X337665Y348849D01*
X337650Y348864D01*
X337596Y348903D01*
X337527Y348943D01*
X337443Y348982D01*
X337340Y349022D01*
X337222Y349046D01*
X337163Y349056D01*
X337060D01*
X337035Y349051D01*
X337001D01*
X336966Y349046D01*
X336882Y349026D01*
X336784Y349002D01*
X336686Y348957D01*
X336582Y348903D01*
X336533Y348864D01*
X336489Y348825D01*
X336484Y348820D01*
X336479Y348815D01*
X336464Y348800D01*
X336450Y348780D01*
X336430Y348761D01*
X336410Y348731D01*
X336386Y348697D01*
X336361Y348657D01*
X336336Y348608D01*
X336307Y348559D01*
X336282Y348505D01*
X336258Y348441D01*
X336238Y348377D01*
X336213Y348303D01*
X336199Y348229D01*
X336184Y348146D01*
X335564Y348254D01*
Y348259D01*
X335569Y348284D01*
X335579Y348313D01*
X335589Y348357D01*
X335603Y348407D01*
X335623Y348470D01*
X335643Y348534D01*
X335672Y348608D01*
X335702Y348682D01*
X335741Y348761D01*
X335780Y348844D01*
X335830Y348923D01*
X335879Y349002D01*
X335938Y349080D01*
X336007Y349149D01*
X336076Y349218D01*
X336081Y349223D01*
X336095Y349233D01*
X336115Y349248D01*
X336149Y349272D01*
X336189Y349297D01*
X336233Y349326D01*
X336292Y349361D01*
X336351Y349391D01*
X336420Y349425D01*
X336499Y349454D01*
X336582Y349484D01*
X336671Y349509D01*
X336764Y349533D01*
X336863Y349548D01*
X336971Y349558D01*
X337079Y349563D01*
X337119D01*
X337148Y349558D01*
D02*
G37*
G36*
X373109Y348889D02*
X371087D01*
X370817Y347526D01*
X370822Y347531D01*
X370836Y347541D01*
X370861Y347555D01*
X370895Y347575D01*
X370935Y347600D01*
X370989Y347629D01*
X371043Y347654D01*
X371107Y347688D01*
X371176Y347718D01*
X371250Y347742D01*
X371412Y347796D01*
X371496Y347816D01*
X371584Y347831D01*
X371678Y347841D01*
X371771Y347846D01*
X371801D01*
X371835Y347841D01*
X371884D01*
X371938Y347831D01*
X372007Y347821D01*
X372081Y347806D01*
X372160Y347787D01*
X372243Y347762D01*
X372337Y347732D01*
X372430Y347698D01*
X372524Y347654D01*
X372617Y347600D01*
X372711Y347541D01*
X372799Y347467D01*
X372888Y347388D01*
X372893Y347383D01*
X372908Y347368D01*
X372932Y347339D01*
X372962Y347304D01*
X372996Y347260D01*
X373031Y347206D01*
X373075Y347142D01*
X373119Y347068D01*
X373159Y346989D01*
X373203Y346901D01*
X373237Y346803D01*
X373277Y346699D01*
X373301Y346586D01*
X373326Y346468D01*
X373341Y346340D01*
X373346Y346207D01*
Y346197D01*
Y346178D01*
X373341Y346143D01*
Y346094D01*
X373336Y346035D01*
X373326Y345966D01*
X373311Y345887D01*
X373296Y345804D01*
X373272Y345715D01*
X373247Y345617D01*
X373213Y345518D01*
X373173Y345420D01*
X373129Y345322D01*
X373075Y345218D01*
X373011Y345120D01*
X372942Y345026D01*
X372937Y345022D01*
X372918Y345002D01*
X372893Y344972D01*
X372854Y344933D01*
X372804Y344884D01*
X372745Y344835D01*
X372676Y344780D01*
X372598Y344721D01*
X372504Y344662D01*
X372406Y344608D01*
X372298Y344559D01*
X372180Y344510D01*
X372052Y344471D01*
X371919Y344441D01*
X371771Y344421D01*
X371619Y344416D01*
X371589D01*
X371555Y344421D01*
X371505D01*
X371446Y344426D01*
X371378Y344436D01*
X371304Y344451D01*
X371220Y344466D01*
X371132Y344485D01*
X371043Y344510D01*
X370950Y344539D01*
X370851Y344579D01*
X370758Y344623D01*
X370664Y344672D01*
X370576Y344731D01*
X370492Y344800D01*
X370487Y344805D01*
X370472Y344820D01*
X370453Y344840D01*
X370423Y344869D01*
X370389Y344908D01*
X370354Y344958D01*
X370310Y345012D01*
X370271Y345071D01*
X370226Y345140D01*
X370182Y345218D01*
X370143Y345302D01*
X370103Y345395D01*
X370069Y345494D01*
X370039Y345597D01*
X370015Y345705D01*
X370000Y345824D01*
X370649Y345878D01*
Y345873D01*
X370654Y345858D01*
X370659Y345833D01*
X370664Y345799D01*
X370674Y345760D01*
X370684Y345715D01*
X370718Y345607D01*
X370763Y345494D01*
X370817Y345376D01*
X370890Y345258D01*
X370935Y345209D01*
X370979Y345159D01*
X370984Y345154D01*
X370994Y345149D01*
X371009Y345140D01*
X371028Y345125D01*
X371053Y345105D01*
X371082Y345086D01*
X371161Y345041D01*
X371255Y344997D01*
X371363Y344963D01*
X371486Y344933D01*
X371550Y344928D01*
X371619Y344923D01*
X371663D01*
X371692Y344928D01*
X371732Y344933D01*
X371776Y344943D01*
X371825Y344953D01*
X371879Y344967D01*
X372002Y345007D01*
X372061Y345031D01*
X372125Y345066D01*
X372189Y345105D01*
X372253Y345149D01*
X372317Y345199D01*
X372376Y345258D01*
X372381Y345263D01*
X372391Y345272D01*
X372406Y345292D01*
X372426Y345322D01*
X372450Y345351D01*
X372475Y345395D01*
X372504Y345445D01*
X372534Y345499D01*
X372558Y345558D01*
X372588Y345627D01*
X372613Y345701D01*
X372637Y345779D01*
X372657Y345863D01*
X372672Y345956D01*
X372681Y346050D01*
X372686Y346153D01*
Y346158D01*
Y346178D01*
Y346202D01*
X372681Y346242D01*
X372676Y346286D01*
X372672Y346335D01*
X372662Y346394D01*
X372647Y346458D01*
X372613Y346591D01*
X372588Y346660D01*
X372558Y346729D01*
X372524Y346798D01*
X372485Y346866D01*
X372440Y346931D01*
X372386Y346989D01*
X372381Y346994D01*
X372371Y347004D01*
X372357Y347019D01*
X372332Y347039D01*
X372303Y347063D01*
X372268Y347088D01*
X372224Y347117D01*
X372180Y347147D01*
X372125Y347172D01*
X372066Y347201D01*
X372002Y347226D01*
X371934Y347250D01*
X371855Y347270D01*
X371776Y347285D01*
X371692Y347295D01*
X371604Y347300D01*
X371555D01*
X371525Y347295D01*
X371496D01*
X371422Y347285D01*
X371338Y347265D01*
X371250Y347240D01*
X371156Y347206D01*
X371063Y347162D01*
X371058D01*
X371053Y347157D01*
X371023Y347137D01*
X370979Y347108D01*
X370930Y347068D01*
X370866Y347014D01*
X370807Y346955D01*
X370743Y346886D01*
X370689Y346812D01*
X370108Y346886D01*
X370595Y349479D01*
X373109D01*
Y348889D01*
D02*
G37*
G36*
X373646Y363448D02*
X370669D01*
Y361908D01*
X373459D01*
Y361312D01*
X370669D01*
Y359595D01*
X373764D01*
Y359000D01*
X370000D01*
Y364043D01*
X373646D01*
Y363448D01*
D02*
G37*
G36*
X337401Y364038D02*
X337465D01*
X337539Y364033D01*
X337613Y364028D01*
X337780Y364009D01*
X337952Y363984D01*
X338114Y363949D01*
X338188Y363930D01*
X338257Y363905D01*
X338262D01*
X338272Y363900D01*
X338292Y363891D01*
X338316Y363881D01*
X338346Y363861D01*
X338380Y363841D01*
X338459Y363792D01*
X338547Y363728D01*
X338641Y363645D01*
X338734Y363541D01*
X338818Y363423D01*
X338823Y363418D01*
X338828Y363408D01*
X338838Y363389D01*
X338852Y363364D01*
X338867Y363330D01*
X338887Y363290D01*
X338907Y363251D01*
X338926Y363202D01*
X338961Y363088D01*
X338995Y362961D01*
X339020Y362818D01*
X339030Y362744D01*
Y362665D01*
Y362661D01*
Y362641D01*
Y362611D01*
X339025Y362577D01*
X339020Y362528D01*
X339010Y362478D01*
X339000Y362415D01*
X338985Y362351D01*
X338966Y362282D01*
X338946Y362208D01*
X338916Y362134D01*
X338882Y362055D01*
X338843Y361982D01*
X338793Y361903D01*
X338744Y361829D01*
X338680Y361760D01*
X338675Y361755D01*
X338665Y361745D01*
X338646Y361726D01*
X338616Y361701D01*
X338577Y361672D01*
X338533Y361637D01*
X338478Y361603D01*
X338415Y361563D01*
X338346Y361524D01*
X338267Y361485D01*
X338178Y361445D01*
X338080Y361406D01*
X337977Y361371D01*
X337863Y361342D01*
X337740Y361312D01*
X337608Y361293D01*
X337613D01*
X337617Y361288D01*
X337632Y361278D01*
X337652Y361273D01*
X337701Y361244D01*
X337760Y361214D01*
X337824Y361175D01*
X337888Y361135D01*
X337952Y361086D01*
X338011Y361042D01*
X338016Y361037D01*
X338026Y361032D01*
X338041Y361012D01*
X338060Y360993D01*
X338085Y360968D01*
X338114Y360934D01*
X338149Y360899D01*
X338188Y360855D01*
X338272Y360756D01*
X338365Y360643D01*
X338464Y360510D01*
X338562Y360368D01*
X339433Y359000D01*
X338601D01*
X337932Y360048D01*
X337927Y360053D01*
X337918Y360068D01*
X337903Y360092D01*
X337883Y360122D01*
X337859Y360161D01*
X337829Y360205D01*
X337765Y360304D01*
X337686Y360417D01*
X337608Y360530D01*
X337524Y360643D01*
X337490Y360693D01*
X337450Y360742D01*
Y360747D01*
X337440Y360752D01*
X337421Y360781D01*
X337381Y360825D01*
X337337Y360875D01*
X337283Y360929D01*
X337229Y360983D01*
X337170Y361037D01*
X337111Y361076D01*
X337106Y361081D01*
X337086Y361091D01*
X337057Y361111D01*
X337017Y361130D01*
X336973Y361155D01*
X336924Y361175D01*
X336870Y361199D01*
X336811Y361214D01*
X336806D01*
X336791Y361219D01*
X336761Y361224D01*
X336722Y361229D01*
X336673D01*
X336609Y361234D01*
X336530Y361239D01*
X335669D01*
Y359000D01*
X335000D01*
Y364043D01*
X337347D01*
X337401Y364038D01*
D02*
G37*
%LPC*%
G36*
X337367Y363487D02*
X335669D01*
Y361814D01*
X337175D01*
X337214Y361819D01*
X337258D01*
X337308Y361824D01*
X337362D01*
X337475Y361839D01*
X337593Y361854D01*
X337711Y361878D01*
X337814Y361908D01*
X337819D01*
X337824Y361913D01*
X337859Y361927D01*
X337903Y361947D01*
X337957Y361982D01*
X338021Y362021D01*
X338085Y362075D01*
X338149Y362134D01*
X338203Y362208D01*
Y362213D01*
X338208Y362218D01*
X338223Y362247D01*
X338247Y362287D01*
X338272Y362346D01*
X338296Y362415D01*
X338321Y362488D01*
X338336Y362577D01*
X338341Y362665D01*
Y362670D01*
Y362680D01*
Y362700D01*
X338336Y362724D01*
X338331Y362754D01*
X338326Y362793D01*
X338306Y362872D01*
X338277Y362965D01*
X338232Y363064D01*
X338203Y363118D01*
X338169Y363162D01*
X338124Y363211D01*
X338080Y363256D01*
X338075Y363261D01*
X338070Y363266D01*
X338050Y363276D01*
X338031Y363290D01*
X338001Y363310D01*
X337967Y363330D01*
X337927Y363349D01*
X337878Y363374D01*
X337824Y363394D01*
X337765Y363413D01*
X337701Y363433D01*
X337627Y363453D01*
X337544Y363467D01*
X337460Y363477D01*
X337367Y363487D01*
D02*
G37*
%LPD*%
D14*
X359831Y354331D02*
G03*
X359831Y354331I-5500J0D01*
G01*
X362331D02*
G03*
X362331Y354331I-8000J0D01*
G01*
X346537Y361891D02*
X349213Y364567D01*
X359449D01*
Y344094D02*
X362124Y346770D01*
X349213Y344094D02*
X359449D01*
X346537Y346770D02*
X349213Y344094D01*
X359449Y364567D02*
X362124Y361891D01*
X344094Y349533D02*
Y359055D01*
X364567Y349533D02*
Y359055D01*
D17*
X370760Y354331D02*
X371760D01*
X368110Y357831D02*
X374410D01*
X368110Y350831D02*
X374410D01*
X370760Y353081D02*
Y355581D01*
Y353081D02*
X371760Y354331D01*
X370760Y355581D02*
X371760Y354331D01*
X370760Y353721D02*
X371236Y354985D01*
X353721Y337902D02*
X354985Y337425D01*
X354331Y336902D02*
X355581Y337902D01*
X353081D02*
X354331Y336902D01*
X353081Y337902D02*
X355581D01*
X350831Y334252D02*
Y340551D01*
X357831Y334252D02*
Y340551D01*
X354331Y336902D02*
Y337902D01*
X336902Y354331D02*
X337902D01*
X334252Y350831D02*
X340551D01*
X334252Y357831D02*
X340551D01*
X337902Y353081D02*
Y355581D01*
X336902Y354331D02*
X337902Y355581D01*
X336902Y354331D02*
X337902Y353081D01*
X337425Y353676D02*
X337902Y354940D01*
X353676Y371236D02*
X354940Y370760D01*
X353081D02*
X354331Y371760D01*
X355581Y370760D01*
X353081D02*
X355581D01*
X357831Y368110D02*
Y374410D01*
X350831Y368110D02*
Y374410D01*
X354331Y370760D02*
Y371760D01*
D18*
X363236Y336661D02*
X367764D01*
X363236Y344339D02*
X367764D01*
X363236Y336661D02*
Y339319D01*
Y341681D02*
Y344339D01*
X367764Y336661D02*
Y339319D01*
Y341681D02*
Y344339D01*
X363236Y371839D02*
X367764D01*
X363236Y364161D02*
X367764D01*
Y369181D02*
Y371839D01*
Y364161D02*
Y366819D01*
X363236Y369181D02*
Y371839D01*
Y364161D02*
Y366819D01*
X345236Y335161D02*
X349764D01*
X345236Y342839D02*
X349764D01*
X345236Y335161D02*
Y337819D01*
Y340181D02*
Y342839D01*
X349764Y335161D02*
Y337819D01*
Y340181D02*
Y342839D01*
X358736Y335161D02*
X363264D01*
X358736Y342839D02*
X363264D01*
X358736Y335161D02*
Y337819D01*
Y340181D02*
Y342839D01*
X363264Y335161D02*
Y337819D01*
Y340181D02*
Y342839D01*
X340736Y371839D02*
X345264D01*
X340736Y364161D02*
X345264D01*
Y369181D02*
Y371839D01*
Y364161D02*
Y366819D01*
X340736Y369181D02*
Y371839D01*
Y364161D02*
Y366819D01*
Y336661D02*
X345264D01*
X340736Y344339D02*
X345264D01*
X340736Y336661D02*
Y339319D01*
Y341681D02*
Y344339D01*
X345264Y336661D02*
Y339319D01*
Y341681D02*
Y344339D01*
X358736Y373339D02*
X363264D01*
X358736Y365661D02*
X363264D01*
Y370681D02*
Y373339D01*
Y365661D02*
Y368319D01*
X358736Y370681D02*
Y373339D01*
Y365661D02*
Y368319D01*
X345236Y373339D02*
X349764D01*
X345236Y365661D02*
X349764D01*
Y370681D02*
Y373339D01*
Y365661D02*
Y368319D01*
X345236Y370681D02*
Y373339D01*
Y365661D02*
Y368319D01*
%TF.MD5,1C149FBC96F3AC6714734665F78B3F01*%
M02*
